PathFileType	4	(X/Y/Z)
DataRate	CameraRate	NumFrames	NumMarkers	Units	OrigDataRate	OrigDataStartFrame	OrigNumFrames	
	120.0	120.0	4	39	mm	120.0	40	104
Frame#	Time	midhip	hip_r	hip_l	knee_r	knee_l	ankle_r	ankle_l	midasis	asis_r	asis_l	psis_r	psis_l	epicondLat_r	epicondLat_l	epicondMed_r	epicondMed_l	malleolusLat_r	malleolusLat_l	malleolusMedv_r	malleolusMedv_l	heel_r	heel_l	sternalnotch	xyphoidprocess	neck	subclavicle_r	subclavicle_l	toe_r	toe_l	thighwand_r	thighwand_l	upperleg1_r	upperleg1_l	upperleg2_r	upperleg2_l	shankwand_r	shankwand_l	lowerleg1_r	lowerleg1_l
	X1	Y1	Z1	X2	Y2	Z2	X3	Y3	Z3	X4	Y4	Z4	X5	Y5	Z5	X6	Y6	Z6	X7	Y7	Z7	X8	Y8	Z8	X9	Y9	Z9	X10	Y10	Z10	X11	Y11	Z11	X12	Y12	Z12	X13	Y13	Z13	X14	Y14	Z14	X15	Y15	Z15	X16	Y16	Z16	X17	Y17	Z17	X18	Y18	Z18	X19	Y19	Z19	X20	Y20	Z20	X21	Y21	Z21	X22	Y22	Z22	X23	Y23	Z23	X24	Y24	Z24	X25	Y25	Z25	X26	Y26	Z26	X27	Y27	Z27	X28	Y28	Z28	X29	Y29	Z29	X30	Y30	Z30	X31	Y31	Z31	X32	Y32	Z32	X33	Y33	Z33	X34	Y34	Z34	X35	Y35	Z35	X36	Y36	Z36	X37	Y37	Z37	X38	Y38	Z38	X39	Y39	Z39

	40	0.33333	1479.216	904.912	-248.392	1465.962	879.947	-178.440	1473.147	883.654	-328.652	1443.228	470.105	-134.574	1432.566	461.123	-353.575	1406.565	69.575	-130.443	1383.786	71.127	-363.312	1565.421	960.332	-247.022	1559.731	957.397	-128.072	1571.111	963.268	-365.973	1380.829	1017.695	-221.237	1389.199	1016.212	-306.615	1452.612	475.951	-75.092	1440.764	463.838	-412.950	1427.507	476.908	-184.711	1427.376	465.661	-302.326	1391.225	71.381	-91.387	1365.092	74.372	-399.658	1415.933	83.211	-157.734	1390.439	83.194	-338.290	1342.753	42.560	-143.888	1317.545	42.957	-352.114	1485.995	1370.103	-235.133	1568.683	1206.766	-244.795	1373.459	1436.278	-239.778	1495.973	1359.247	-183.092	1510.625	1365.242	-289.129	1525.716	39.439	-99.441	1500.546	41.143	-401.765	1506.216	591.346	-9.619	1597.157	553.174	-342.118	1522.611	651.286	-83.373	1535.493	618.730	-381.597	1513.833	563.731	-98.481	1508.643	535.391	-385.891	1418.175	205.025	-5.753	1406.225	211.864	-479.570	1406.158	171.811	-78.511	1385.507	173.698	-410.730
	41	0.34167	1479.237	904.851	-248.307	1465.993	879.965	-178.468	1473.188	883.656	-328.680	1443.223	470.129	-134.638	1432.753	461.112	-353.591	1406.611	69.573	-130.428	1383.795	71.110	-363.317	1565.443	960.359	-247.053	1559.744	957.436	-128.071	1571.142	963.283	-366.036	1380.876	1017.684	-221.300	1389.314	1016.170	-306.618	1452.587	475.970	-75.153	1440.899	463.833	-412.973	1427.462	476.916	-184.666	1427.408	465.367	-302.657	1391.260	71.387	-91.376	1365.070	74.366	-399.646	1415.822	83.120	-157.830	1390.445	83.220	-338.225	1342.749	42.568	-143.903	1317.542	42.921	-352.101	1485.943	1370.058	-235.107	1568.571	1206.689	-244.753	1373.410	1436.282	-239.691	1495.854	1359.171	-183.029	1510.637	1365.214	-289.107	1525.733	39.404	-99.419	1500.530	41.145	-401.768	1506.227	591.344	-9.638	1597.145	553.154	-342.100	1522.607	651.282	-83.395	1535.428	618.733	-381.641	1513.822	563.775	-98.474	1508.673	535.222	-386.047	1418.162	205.023	-5.771	1406.215	211.853	-479.564	1405.888	171.782	-78.624	1385.628	173.769	-410.692
	42	0.35000	1479.209	904.782	-248.222	1466.043	879.989	-178.490	1473.251	883.658	-328.702	1443.220	470.150	-134.700	1432.934	461.114	-353.596	1406.665	69.571	-130.411	1383.806	71.084	-363.319	1565.480	960.396	-247.078	1559.769	957.489	-128.063	1571.191	963.303	-366.094	1380.898	1017.685	-221.345	1389.395	1016.132	-306.628	1452.561	475.986	-75.211	1441.032	463.840	-412.985	1427.315	477.083	-184.737	1427.701	464.972	-302.989	1391.299	71.391	-91.365	1365.052	74.351	-399.631	1415.760	83.043	-157.862	1390.548	83.401	-338.223	1342.750	42.574	-143.921	1317.544	42.881	-352.093	1485.896	1369.999	-235.074	1568.566	1206.656	-244.796	1373.415	1436.161	-239.651	1495.761	1359.066	-182.962	1510.639	1365.209	-289.094	1525.740	39.373	-99.398	1500.512	41.150	-401.779	1506.238	591.343	-9.656	1597.126	553.137	-342.089	1522.568	651.299	-83.367	1535.304	618.593	-381.624	1513.760	563.867	-98.518	1508.932	535.368	-386.156	1418.149	205.018	-5.784	1406.214	211.841	-479.559	1405.820	171.767	-78.643	1385.862	173.872	-410.654
	43	0.35833	1479.169	904.731	-248.138	1466.102	880.012	-178.502	1473.321	883.658	-328.714	1443.220	470.169	-134.758	1433.082	461.120	-353.590	1406.718	69.565	-130.394	1383.816	71.052	-363.317	1565.523	960.435	-247.095	1559.802	957.545	-128.048	1571.244	963.325	-366.143	1380.897	1017.693	-221.371	1389.444	1016.100	-306.645	1452.537	475.999	-75.265	1441.144	463.849	-412.983	1426.979	477.361	-184.895	1428.511	464.408	-303.478	1391.337	71.392	-91.354	1365.041	74.329	-399.619	1415.760	82.976	-157.836	1390.726	83.554	-338.268	1342.757	42.576	-143.939	1317.547	42.847	-352.090	1485.882	1369.959	-235.147	1568.656	1206.671	-244.928	1373.279	1436.098	-239.717	1495.774	1359.024	-183.020	1510.609	1365.194	-289.199	1525.735	39.352	-99.380	1500.494	41.156	-401.797	1506.250	591.346	-9.672	1597.098	553.122	-342.084	1522.533	651.321	-83.317	1535.246	618.476	-381.582	1513.616	563.873	-98.630	1509.644	535.808	-386.278	1418.138	205.013	-5.795	1406.223	211.829	-479.559	1406.005	171.808	-78.604	1386.073	173.993	-410.606
